<?xml version="1.0" encoding="UTF-8"?>
<svg xmlns="http://www.w3.org/2000/svg" version="1.1" viewBox="0 0 160 160">
  <!-- Generator: Adobe Illustrator 29.8.5, SVG Export Plug-In . SVG Version: 2.1.1 Build 2)  -->
  <defs>
    <style>
      .st0 {
        fill: #007f6b;
      }

      .st1, .st2 {
        fill: #fff;
      }

      .st2 {
        font-family: IvyOraDisplay-ThinItalic, 'IvyOra Display';
        font-size: 27px;
        font-style: italic;
        font-weight: 200;
      }

      .st3 {
        display: none;
      }
    </style>
  </defs>
  <g id="Square">
    <rect class="st0" x="-.04" y=".11" width="160.46" height="159.44" rx="19.65" ry="19.65"/>
  </g>
  <g id="RA">
    <g>
      <path class="st1" d="M60.8,30.26c14.45,1.3,20.24,19.89,11.09,30.45-1.54,1.78-3.37,3.12-5.38,4.3l11.24,23.18c-6.49-.6-9.36-7.02-11.48-12.34-.18-.26-.17-.08-.34-.02-.26.1-.46.24-.77.33-.2.06-.26-.09-.22.24.07.59,1.06,2.64,1.37,3.31,2.16,4.59,5.44,9.19,10.88,9.89.81.1,1.46-.26,1.64.93h-11.71l-10.93-23.42h-7.11l-.23.23v10.93l7.34,12.26h-9.29l-.23-.23v-3.05h-8.9c.02.81-2.7,3.28-3.2,3.28h-3.67c.17-.61.62-1.21.97-1.77,1.91-3.07,4.02-6.01,5.83-9.15.02-.24-.09-.46-.08-.71.07-4.92-.37-10.51,0-15.32.28-3.68,5-4.41,7.88-3.52.27-.05.42-1.09.39-1.39-2.79-.73-6.66-.46-8.58,1.94-1.28,1.61-1.58,4.17-.31,5.85-1.31-.08-1.98-1.32-2.3-2.46-.74-2.65.42-5.46,2.92-6.6.1-.09-.54-1.3-.84-1.23-2.23,1.35-3.84,3.7-3.69,6.39l-.45-1.34c-.3-2.98.73-5.7,3.37-7.22.32-.18,1.73-.76,1.76-.9.04-.13-.15-.25-.15-.3v-11.79l-1.69-.03-6.58-10.75h31.47l-.02.03ZM43.07,40.72c-.09-1.24.51-2.71,1.67-3.26.3-.04,1.07,1.12,1.69,1.23l7.47-.02c.21-.07,1.7-3.06,1.65-3.32-.74-.47-1.58-.96-2.38-1.37-.5-.26-1.77-.99-2.22-1.06-.95-.14-3.68-.11-4.67,0-1.91.22-5.04,1.8-6,3.52-.44.78.4,2.13.92,2.79.17.21,1.25,1.33,1.4,1.41.16.08.3.09.47.07h0ZM60.72,36.04c-.27-1.3-1.48-.02-2.3.12-.72.12-1.48-.03-2.21.05l-.17.76c.68.02,1.58.04,2.23.19.36.08,1.91,1.15,1.98,1.06.23-.52-1.09-1.3-1.09-1.48,0,0,1.56-.7,1.56-.7ZM39.48,38.54c-.2-.26-.28.04-.32.22-1.12,4.33.35,8.52.78,12.83.04.39,0,.77,0,1.16,1.94-.04,3.92.18,5.78.78-.4-3.81-1.99-7.36-2.52-11.14l-.13-.18c-1.53-.69-3.06-2.05-3.6-3.67ZM69.77,55.4c2.21-5.14,1.03-10.96-2.65-15.07-.27-.3-.76-.91-1.16-.87-.17.46-.71.66-.7,1.1.08,0,.2,0,.25.05.66.72,1.38,1.58,1.9,2.4,2.22,3.51,2.73,7.79,1.14,11.66.06.29,1.15.82,1.23.72h-.01ZM48.85,54.47c1.57.25,3.21,1.21,4.78,1.39s4.83.12,6.35-.18c6.57-1.3,6.85-11.41.74-13.94-.59-.24-2.18-.7-2.73-.7h-8.9l-.23.23v13.2h0ZM68.99,56.5l-1.15-.47c-1.05,1.52-2.28,2.83-3.89,3.77-3.81,2.23-7.57,2.02-11.7.87-.63-.18-4.94-1.73-5.11-1.52l-.3,1.17.24.2c2.27.58,4.44,1.52,6.73,2.01,5.34,1.13,10.57-.11,14.17-4.32.21-.24,1.23-1.52,1.01-1.72h0ZM46.51,62.43c-2.22-.38-4.49-.05-6.71,0v4.22h6.71v-4.22ZM65.55,74.61c.16-.17-1.22-3.2-1.42-3.64-.49-1.07-1.09-2.3-1.67-3.33-.29-.52-1.88-3.23-2.29-3.27l-1.65.1c-.09.07,1.23,1.61,1.38,1.82,1.9,2.69,3.17,5.76,4.4,8.8l1.24-.47h0ZM46.66,70.71h-7.03v4.22h7.03v-4.22ZM46.66,79.14h-6.95c-.39,0-.2,1.88-.23,2.27-.06.67-.3,1.42-.32,2.11h7.5v-4.37h0Z"/>
      <path class="st1" d="M111.78,64.46h-10.46l5.31-21.24,5.15,21.24ZM109.91,63.05l-3.28-13.74-.33.53-3.26,13.22h6.87Z"/>
      <path class="st1" d="M93.82,75.7l.48,4.44c.03,2.04.15,3.81-.97,5.6-.99,1.6-2.54,2.34-4.27,2.91-.17-.11-.19-.21-.23-.39-.13-.61-.16-1.33-.31-1.95,5.15-1.26,3.02-6.85,2.96-10.62h2.34Z"/>
      <path class="st1" d="M57.44,75.86c-4.18-.33-7.91-3.55-7.65-7.96l4.62,5.14.37-.22-4.37-5.23c2.56.27,4.69,1.79,5.84,4.07.68,1.34.91,2.74,1.19,4.2Z"/>
      <path class="st1" d="M37.14,77.73c-.37.07-.25-.04-.34-.2-1.08-1.79-2.03-3.66-3.17-5.42l-.38.38,3.43,5.87c-2.42-.63-4.27-2.55-5-4.91-.47-1.5-.51-2.83-.31-4.38.02-.19.09-.27.24-.38,2.2.95,4.18,2.62,5.11,4.88.08.21.44,1.17.44,1.28v2.89h-.02Z"/>
      <path class="st1" d="M34.01,39.47l-5.09-3.9-.3.46,5.24,4.13c-.19.14-.63.1-.86.08-.88-.09-1.75-.23-2.57-.55-2.52-.99-4.41-3.69-4.84-6.32,3.89-.38,7.87,2.07,8.43,6.09h-.01Z"/>
      <path class="st1" d="M76.65,62.74c-.62,3.1-4.08,5.93-7.27,5.79-.48-.02-1.03-.06-.83-.61,1.62-.73,3.17-2.1,4.78-2.8.26-.12.3-.41.2-.5-.12-.11-.52.1-.68.18-1.46.74-2.92,1.87-4.4,2.63-.35.1-.26-.3-.2-.51.49-1.91,3.43-4.17,5.36-4.17h3.05-.01Z"/>
      <path class="st1" d="M127.71,62.12c1.21,3.62.19,7.83-3.43,9.53-.03-.3.1-.55.19-.82.52-1.53,1.44-3.14,1.92-4.64.05-.15.13-.57.07-.63-.02-.02-.49-.08-.47.1l-2.03,5.2c-.24.05-.15-.18-.2-.35-.23-.83-.51-1.66-.41-2.53.22-1.88,1.6-3.89,3.03-5.09.18-.15,1.2-.94,1.33-.78h0Z"/>
      <path class="st1" d="M95.23,47.6c-.22-.02-.25-.22-.32-.38-.68-1.61-1.25-3.29-1.88-4.92h-.46l2.19,5.93c-1.51-.46-2.72-1.9-3.31-3.33-.84-2.03-.72-3.96-.13-6.04.2-.05.28.05.42.13,2.01,1.04,3.88,3.76,3.96,6.04.03.79-.5,1.76-.48,2.57h0Z"/>
      <path class="st1" d="M88.98,71.17c-.27-.04-.27-.32-.35-.51-.71-1.58-1.38-3.18-2-4.79-.23-.02-.54-.13-.44.21l2.33,5.71c-.13.13-1.2-.56-1.39-.71-2.22-1.72-3.02-4.76-2.48-7.45.04-.21.37-1.2.51-1.2,3,1.96,5.01,5.06,3.82,8.74Z"/>
      <path class="st1" d="M37.14,51.34c-.21-.08-.41-.3-.54-.48-.96-1.33-1.7-3.01-2.66-4.36l-.39.08.03.29,3.25,5.26c-3.81-.9-5.66-4.91-5-8.59,1.67.4,3.53,1.84,4.44,3.29.23.38.87,1.73.87,2.1v2.42h0Z"/>
      <path class="st1" d="M102.55,33.09l.02,2.07c-.44.18-.77.81-1.18.88-.57.1-1.4-.04-2.03,0-.3.02-.58.15-.93.17-.77.03-1.56-.02-2.33-.03-.23-.08-1.19-1.83-1.2-2.08l2.77-1.61c.61-.17,3.15-.32,3.69-.16.37.11.61.86,1.18.77h.01ZM97.9,33.56c-.6.85.61,1.52,1,.77.31-.59-.49-.93-1-.77Z"/>
      <path class="st1" d="M113.5,44.78c.32,3.34.1,7.15,2.34,9.92l-1.49,1.17c-.22.06-.26-.13-.36-.25-.64-.77-1.23-2.21-1.51-3.18-.69-2.41-.75-5.03-1-7.49,0,0,2.02-.17,2.02-.17Z"/>
      <path class="st1" d="M129.43,68.68c.85,2.89-.25,6.26-2.92,7.78-.15.08-.73.44-.83.34l2.5-5.15c-.49-.12-.54.22-.75.58-.62,1.04-1.09,2.2-1.73,3.27-.09.16-.16.34-.18.52-.38.02-.27.05-.31-.24-.04-.37-.16-.74-.17-1.09-.06-2.05,1.66-4.36,3.3-5.46.15-.1,1.01-.63,1.08-.56h0Z"/>
      <path class="st1" d="M104.75,68.68c-.25.39-.82,1.73-1.2,1.85l-4.66.03c-1.26-.48-1.26-1.52-1.33-2.72.02-.15.45-.17.63-.33.16-.14.2-.45.41-.52.33-.11,2.02-.05,2.46,0,1.51.15,2.36,1.14,3.68,1.71v-.02ZM101.91,68.24c-.23-.23-.62-.13-.89-.02-.25,1.77,1.68.81.89.02Z"/>
      <path class="st1" d="M114.47,67.54c.16.15.52.18.74.2l-.31,2.09-1.18.72-4.66-.02c-.13-.04-.99-1.45-1.02-1.64-.04-.26.52-.53.72-.65.5-.31,1.88-1.16,2.35-1.24s2.83-.12,3.1.11c.14.11.16.35.26.44h0ZM111.61,69.13s.19-.53.16-.66c-.2-.75-1.3-.37-1.07.43.08.27.76.34.91.23Z"/>
      <path class="st1" d="M83.36,69.85c.08-.31.37-.2.58-.11,1.34.61,2.9,2.4,3.4,3.78.41,1.12.28,1.63.23,2.73-.01.3.02.25-.31.23-.61-1.24-1.25-2.68-2-3.86-.13-.21-.18-.42-.5-.36l1.79,3.75c1.36,1.8-.24.97-1.09.31-.76-.6-2.11-2.57-2.11-3.52,0-.68-.13-2.47,0-2.97v.02Z"/>
      <path class="st1" d="M121.31,74.61h-2.34c.03-1.31-.53-2.82-1.57-3.66-.32-.26-1.48-.77-1.54-.97l.38-2.09c1.37.29,2.71,1.11,3.58,2.2,1.06,1.33,1.35,2.86,1.49,4.52Z"/>
      <path class="st1" d="M91.32,74.61c.24-.37.11-.76.17-1.16.4-2.63,2.2-4.94,4.89-5.41l.56,2.2c-2,.38-3.26,2.38-3.12,4.37,0,0-2.5,0-2.5,0Z"/>
      <path class="st1" d="M120.84,82.73c.23,1.81,1.66,3.23,3.44,3.59-.24.33-.2,2.32-.55,2.34-2.89-.77-5.02-2.85-5.23-5.93,0,0,2.34,0,2.34,0Z"/>
      <path class="st1" d="M98.66,79.14l4.21-2.73-.51-.05-3.7,2.15c.59-2.16,2.6-3.51,4.78-3.73.33-.03,1.93-.12,1.94.22-1.21,2.61-3.67,4.76-6.71,4.14h-.01Z"/>
      <path class="st1" d="M120.84,39.47c.55,2.88-.43,5.98-3.28,7.18-.26-.31,2.29-4.38,2.03-4.68-.4-.09-.27.1-.4.3-.71,1.06-1.27,2.43-1.79,3.61-.38.02-.27.05-.31-.24-.14-1.23-.23-1.62.28-2.84.58-1.39,2.01-2.88,3.46-3.33h.01Z"/>
      <path class="st1" d="M114.59,78.51c-1.2-.59-2.26-1.48-3.45-2.1-.22-.12-.4-.29-.69-.25-.14.14.3.47.4.54,1.15.83,2.61,1.45,3.74,2.35l-1.94.07c-2.16-.45-3.97-2.23-4.46-4.36,2.64-.25,5.73.98,6.4,3.75Z"/>
      <path class="st1" d="M91.79,60.87l.62-2.11c1.94-.51,3.56-1.61,4.94-3.03l1.62,1.16c-1.85,2.11-4.33,3.74-7.18,3.98Z"/>
      <path class="st1" d="M126.93,81.01l2.5-3.83c.07-.19-.04-.32-.23-.23-.54.25-1.95,3.02-2.5,3.59l-.07-1.63c.47-2.16,2.16-3.64,4.21-4.3.33,2.71-1.03,5.88-3.9,6.4h-.01Z"/>
      <path class="st1" d="M86.33,80.54c-.41.09-.27-.12-.4-.3-.76-1.02-1.45-2.1-2.18-3.14l-.39.08,2.65,3.98c-2.85-.45-4.42-3.75-3.9-6.4,2.31,1,4.56,3.03,4.21,5.78h.01Z"/>
      <path class="st1" d="M131.77,88.82h-6.64c-.1,0-.18-.18-.17-.31.06-.68.29-1.34.25-2.03l5.05.03c.17.05,1.19,1.49,1.36,1.77.11.19.21.29.15.55h0Z"/>
      <path class="st1" d="M121.93,44.32c.63,2.55-.63,5.75-3.28,6.56l2.18-4.14c-.18-.17-.18-.33-.39-.08-.33.4-.91,1.55-1.2,2.08s-.58,1.1-.75,1.67c-.21.02-.28-.57-.3-.72-.24-2.47,1.45-4.62,3.73-5.37h0Z"/>
      <path class="st1" d="M121.31,75.7l-.64,5.92-2.17.17c-.07-2.09.26-4.17.47-6.25.76.25,1.56.14,2.34.16Z"/>
      <path class="st1" d="M113.34,43.69l-2.02.15c-.27-2.06-.98-3.87-2.18-5.56l1.31-1.46c1.71,1.9,2.51,4.37,2.89,6.87Z"/>
      <path class="st1" d="M81.17,88.82c-.24-.22,1.39-1.89,1.43-2.32l4.97-.03.31,2.34h-6.71Z"/>
      <path class="st1" d="M123.8,49c.2,2.72-1.22,5.3-3.9,6.09-.05-.26.13-.41.25-.61.62-1.1,1.5-2.2,2.25-3.22-.25-.39-.42-.08-.62.16-.74.87-1.44,2.21-2.03,3.2-.26.04-.15-.21-.15-.39-.04-1.18.05-1.76.65-2.78.73-1.23,2.13-2.29,3.56-2.45h0Z"/>
      <path class="st1" d="M101.32,49v2.42c0,.46-.47,1.96-.66,2.46-.28.73-.66,1.4-1.05,2.07-.12.1-.36-.09-.46-.17-.17-.12-1.07-.86-1.09-.95.97-1.76,1.31-3.53,1.3-5.53l1.96-.3Z"/>
      <path class="st1" d="M101.01,47.91l-2.02.31c-.17-1.06-.9-2.34-1.64-3.12-.25-.27-.93-.65-1-.88-.09-.3.2-1.3.29-1.69.04-.18.06-.28.23-.39,2.03,1.31,3.67,3.37,4.14,5.78h0Z"/>
      <path class="st1" d="M103.68,35.24l-.02-2.01c2.24.21,4.5,1.29,6.09,2.89l-1.48,1.3c-1.39-1.06-2.87-1.81-4.59-2.17h0Z"/>
      <path class="st1" d="M120.84,59.77c-2.21-.23-4.37-1.48-5.93-3.04l1.62-1.32c1.02,1.09,2.34,1.68,3.69,2.25,0,0,.62,2.11.62,2.11Z"/>
      <path class="st1" d="M55.1,48.14c-.24,1.71-1.57,3.85-2.97,4.83-.43.3-1.46.87-1.95,1.02-.21.07-.28-.02-.23-.23.93-1.67,2.15-3.23,3.09-4.87.1-.18.28-.42-.05-.51-.25-.07-.37.29-.48.45-1,1.37-1.81,3.05-2.8,4.39-.05.07-.19.21-.23.16-.82-3.88,2.15-6.99,5.62-8.12-.09.9.12,2.01,0,2.89h0Z"/>
      <path class="st1" d="M51.16,36.01c-.81.81-1.99-.56-1.15-1.23.9-.71,1.78.59,1.15,1.23Z"/>
    </g>
  </g>
  <g id="Rafael_Amezcua_text">
    <text class="st2" transform="translate(8.98 120.83)"><tspan x="0" y="0">Rafael Amezcua</tspan></text>
    <text/>
  </g>
  <g id="RA_BOX" class="st3">
    <g id="RA_LOGO_BOX">
      <rect class="st0" x="168.51" y=".02" width="160.46" height="159.44" rx="19.65" ry="19.65"/>
      <g>
        <path class="st1" d="M228.5,50.25c14.45,1.3,20.24,19.89,11.09,30.45-1.54,1.78-3.37,3.12-5.38,4.3l11.24,23.18c-6.49-.6-9.36-7.02-11.48-12.34-.18-.26-.17-.08-.34-.02-.26.1-.46.24-.77.33-.2.06-.26-.09-.22.24.07.59,1.06,2.64,1.37,3.31,2.16,4.59,5.44,9.19,10.88,9.89.81.1,1.46-.26,1.64.93h-11.71l-10.93-23.42h-7.11l-.23.23v10.93l7.34,12.26h-9.29l-.23-.23v-3.05h-8.9c.02.81-2.7,3.28-3.2,3.28h-3.67c.17-.61.62-1.21.97-1.77,1.91-3.07,4.02-6.01,5.83-9.15.02-.24-.09-.46-.08-.71.07-4.92-.37-10.51,0-15.32.28-3.68,5-4.41,7.88-3.52.27-.05.42-1.09.39-1.39-2.79-.73-6.66-.46-8.58,1.94-1.28,1.61-1.58,4.17-.31,5.85-1.31-.08-1.98-1.32-2.3-2.46-.74-2.65.42-5.46,2.92-6.6.1-.09-.54-1.3-.84-1.23-2.23,1.35-3.84,3.7-3.69,6.39l-.45-1.34c-.3-2.98.73-5.7,3.37-7.22.32-.18,1.73-.76,1.76-.9.04-.13-.15-.25-.15-.3v-11.79l-1.69-.03-6.58-10.75h31.47l-.02.03ZM210.77,60.71c-.09-1.24.51-2.71,1.67-3.26.3-.04,1.07,1.12,1.69,1.23l7.47-.02c.21-.07,1.7-3.06,1.65-3.32-.74-.47-1.58-.96-2.38-1.37-.5-.26-1.77-.99-2.22-1.06-.95-.14-3.68-.11-4.67,0-1.91.22-5.04,1.8-6,3.52-.44.78.4,2.13.92,2.79.17.21,1.25,1.33,1.4,1.41.16.08.3.09.47.07h0ZM228.42,56.03c-.27-1.3-1.48-.02-2.3.12-.72.12-1.48-.03-2.21.05l-.17.76c.68.02,1.58.04,2.23.19.36.08,1.91,1.15,1.98,1.06.23-.52-1.09-1.3-1.09-1.48,0,0,1.56-.7,1.56-.7ZM207.18,58.53c-.2-.26-.28.04-.32.22-1.12,4.33.35,8.52.78,12.83.04.39,0,.77,0,1.16,1.94-.04,3.92.18,5.78.78-.4-3.81-1.99-7.36-2.52-11.14l-.13-.18c-1.53-.69-3.06-2.05-3.6-3.67ZM237.47,75.39c2.21-5.14,1.03-10.96-2.65-15.07-.27-.3-.76-.91-1.16-.87-.17.46-.71.66-.7,1.1.08,0,.2,0,.25.05.66.72,1.38,1.58,1.9,2.4,2.22,3.51,2.73,7.79,1.14,11.66.06.29,1.15.82,1.23.72h-.01ZM216.55,74.46c1.57.25,3.21,1.21,4.78,1.39s4.83.12,6.35-.18c6.57-1.3,6.85-11.41.74-13.94-.59-.24-2.18-.7-2.73-.7h-8.9l-.23.23v13.2h0ZM236.69,76.49l-1.15-.47c-1.05,1.52-2.28,2.83-3.89,3.77-3.81,2.23-7.57,2.02-11.7.87-.63-.18-4.94-1.73-5.11-1.52l-.3,1.17.24.2c2.27.58,4.44,1.52,6.73,2.01,5.34,1.13,10.57-.11,14.17-4.32.21-.24,1.23-1.52,1.01-1.72h0ZM214.21,82.42c-2.22-.38-4.49-.05-6.71,0v4.22h6.71v-4.22ZM233.25,94.6c.16-.17-1.22-3.2-1.42-3.64-.49-1.07-1.09-2.3-1.67-3.33-.29-.52-1.88-3.23-2.29-3.27l-1.65.1c-.09.07,1.23,1.61,1.38,1.82,1.9,2.69,3.17,5.76,4.4,8.8l1.24-.47h0ZM214.36,90.7h-7.03v4.22h7.03v-4.22ZM214.36,99.13h-6.95c-.39,0-.2,1.88-.23,2.27-.06.67-.3,1.42-.32,2.11h7.5v-4.37h0Z"/>
        <path class="st1" d="M279.48,84.45h-10.46l5.31-21.24,5.15,21.24ZM277.61,83.04l-3.28-13.74-.33.53-3.26,13.22h6.87Z"/>
        <path class="st1" d="M261.52,95.69l.48,4.44c.03,2.04.15,3.81-.97,5.6-.99,1.6-2.54,2.34-4.27,2.91-.17-.11-.19-.21-.23-.39-.13-.61-.16-1.33-.31-1.95,5.15-1.26,3.02-6.85,2.96-10.62h2.34Z"/>
        <path class="st1" d="M225.14,95.85c-4.18-.33-7.91-3.55-7.65-7.96l4.62,5.14.37-.22-4.37-5.23c2.56.27,4.69,1.79,5.84,4.07.68,1.34.91,2.74,1.19,4.2Z"/>
        <path class="st1" d="M204.84,97.72c-.37.07-.25-.04-.34-.2-1.08-1.79-2.03-3.66-3.17-5.42l-.38.38,3.43,5.87c-2.42-.63-4.27-2.55-5-4.91-.47-1.5-.51-2.83-.31-4.38.02-.19.09-.27.24-.38,2.2.95,4.18,2.62,5.11,4.88.08.21.44,1.17.44,1.28v2.89h-.02Z"/>
        <path class="st1" d="M201.71,59.46l-5.09-3.9-.3.46,5.24,4.13c-.19.14-.63.1-.86.08-.88-.09-1.75-.23-2.57-.55-2.52-.99-4.41-3.69-4.84-6.32,3.89-.38,7.87,2.07,8.43,6.09h-.01Z"/>
        <path class="st1" d="M244.35,82.73c-.62,3.1-4.08,5.93-7.27,5.79-.48-.02-1.03-.06-.83-.61,1.62-.73,3.17-2.1,4.78-2.8.26-.12.3-.41.2-.5-.12-.11-.52.1-.68.18-1.46.74-2.92,1.87-4.4,2.63-.35.1-.26-.3-.2-.51.49-1.91,3.43-4.17,5.36-4.17h3.05-.01Z"/>
        <path class="st1" d="M295.41,82.11c1.21,3.62.19,7.83-3.43,9.53-.03-.3.1-.55.19-.82.52-1.53,1.44-3.14,1.92-4.64.05-.15.13-.57.07-.63-.02-.02-.49-.08-.47.1l-2.03,5.2c-.24.05-.15-.18-.2-.35-.23-.83-.51-1.66-.41-2.53.22-1.88,1.6-3.89,3.03-5.09.18-.15,1.2-.94,1.33-.78h0Z"/>
        <path class="st1" d="M262.93,67.59c-.22-.02-.25-.22-.32-.38-.68-1.61-1.25-3.29-1.88-4.92h-.46l2.19,5.93c-1.51-.46-2.72-1.9-3.31-3.33-.84-2.03-.72-3.96-.13-6.04.2-.05.28.05.42.13,2.01,1.04,3.88,3.76,3.96,6.04.03.79-.5,1.76-.48,2.57h0Z"/>
        <path class="st1" d="M256.68,91.16c-.27-.04-.27-.32-.35-.51-.71-1.58-1.38-3.18-2-4.79-.23-.02-.54-.13-.44.21l2.33,5.71c-.13.13-1.2-.56-1.39-.71-2.22-1.72-3.02-4.76-2.48-7.45.04-.21.37-1.2.51-1.2,3,1.96,5.01,5.06,3.82,8.74Z"/>
        <path class="st1" d="M204.84,71.33c-.21-.08-.41-.3-.54-.48-.96-1.33-1.7-3.01-2.66-4.36l-.39.08.03.29,3.25,5.26c-3.81-.9-5.66-4.91-5-8.59,1.67.4,3.53,1.84,4.44,3.29.23.38.87,1.73.87,2.1v2.42h0Z"/>
        <path class="st1" d="M270.25,53.08l.02,2.07c-.44.18-.77.81-1.18.88-.57.1-1.4-.04-2.03,0-.3.02-.58.15-.93.17-.77.03-1.56-.02-2.33-.03-.23-.08-1.19-1.83-1.2-2.08l2.77-1.61c.61-.17,3.15-.32,3.69-.16.37.11.61.86,1.18.77h.01ZM265.6,53.55c-.6.85.61,1.52,1,.77.31-.59-.49-.93-1-.77Z"/>
        <path class="st1" d="M281.2,64.77c.32,3.34.1,7.15,2.34,9.92l-1.49,1.17c-.22.06-.26-.13-.36-.25-.64-.77-1.23-2.21-1.51-3.18-.69-2.41-.75-5.03-1-7.49,0,0,2.02-.17,2.02-.17Z"/>
        <path class="st1" d="M297.13,88.67c.85,2.89-.25,6.26-2.92,7.78-.15.08-.73.44-.83.34l2.5-5.15c-.49-.12-.54.22-.75.58-.62,1.04-1.09,2.2-1.73,3.27-.09.16-.16.34-.18.52-.38.02-.27.05-.31-.24-.04-.37-.16-.74-.17-1.09-.06-2.05,1.66-4.36,3.3-5.46.15-.1,1.01-.63,1.08-.56h0Z"/>
        <path class="st1" d="M272.45,88.67c-.25.39-.82,1.73-1.2,1.85l-4.66.03c-1.26-.48-1.26-1.52-1.33-2.72.02-.15.45-.17.63-.33.16-.14.2-.45.41-.52.33-.11,2.02-.05,2.46,0,1.51.15,2.36,1.14,3.68,1.71v-.02ZM269.61,88.23c-.23-.23-.62-.13-.89-.02-.25,1.77,1.68.81.89.02Z"/>
        <path class="st1" d="M282.17,87.53c.16.15.52.18.74.2l-.31,2.09-1.18.72-4.66-.02c-.13-.04-.99-1.45-1.02-1.64-.04-.26.52-.53.72-.65.5-.31,1.88-1.16,2.35-1.24s2.83-.12,3.1.11c.14.11.16.35.26.44h0ZM279.31,89.12s.19-.53.16-.66c-.2-.75-1.3-.37-1.07.43.08.27.76.34.91.23Z"/>
        <path class="st1" d="M251.06,89.84c.08-.31.37-.2.58-.11,1.34.61,2.9,2.4,3.4,3.78.41,1.12.28,1.63.23,2.73-.01.3.02.25-.31.23-.61-1.24-1.25-2.68-2-3.86-.13-.21-.18-.42-.5-.36l1.79,3.75c1.36,1.8-.24.97-1.09.31-.76-.6-2.11-2.57-2.11-3.52,0-.68-.13-2.47,0-2.97v.02Z"/>
        <path class="st1" d="M289.01,94.61h-2.34c.03-1.31-.53-2.82-1.57-3.66-.32-.26-1.48-.77-1.54-.97l.38-2.09c1.37.29,2.71,1.11,3.58,2.2,1.06,1.33,1.35,2.86,1.49,4.52Z"/>
        <path class="st1" d="M259.02,94.6c.24-.37.11-.76.17-1.16.4-2.63,2.2-4.94,4.89-5.41l.56,2.2c-2,.38-3.26,2.38-3.12,4.37,0,0-2.5,0-2.5,0Z"/>
        <path class="st1" d="M288.54,102.72c.23,1.81,1.66,3.23,3.44,3.59-.24.33-.2,2.32-.55,2.34-2.89-.77-5.02-2.85-5.23-5.93,0,0,2.34,0,2.34,0Z"/>
        <path class="st1" d="M266.36,99.13l4.21-2.73-.51-.05-3.7,2.15c.59-2.16,2.6-3.51,4.78-3.73.33-.03,1.93-.12,1.94.22-1.21,2.61-3.67,4.76-6.71,4.14h-.01Z"/>
        <path class="st1" d="M288.54,59.46c.55,2.88-.43,5.98-3.28,7.18-.26-.31,2.29-4.38,2.03-4.68-.4-.09-.27.1-.4.3-.71,1.06-1.27,2.43-1.79,3.61-.38.02-.27.05-.31-.24-.14-1.23-.23-1.62.28-2.84.58-1.39,2.01-2.88,3.46-3.33h.01Z"/>
        <path class="st1" d="M282.29,98.5c-1.2-.59-2.26-1.48-3.45-2.1-.22-.12-.4-.29-.69-.25-.14.14.3.47.4.54,1.15.83,2.61,1.45,3.74,2.35l-1.94.07c-2.16-.45-3.97-2.23-4.46-4.36,2.64-.25,5.73.98,6.4,3.75Z"/>
        <path class="st1" d="M259.49,80.86l.62-2.11c1.94-.51,3.56-1.61,4.94-3.03l1.62,1.16c-1.85,2.11-4.33,3.74-7.18,3.98Z"/>
        <path class="st1" d="M294.63,101l2.5-3.83c.07-.19-.04-.32-.23-.23-.54.25-1.95,3.02-2.5,3.59l-.07-1.63c.47-2.16,2.16-3.64,4.21-4.3.33,2.71-1.03,5.88-3.9,6.4h-.01Z"/>
        <path class="st1" d="M254.03,100.53c-.41.09-.27-.12-.4-.3-.76-1.02-1.45-2.1-2.18-3.14l-.39.08,2.65,3.98c-2.85-.45-4.42-3.75-3.9-6.4,2.31,1,4.56,3.03,4.21,5.78h.01Z"/>
        <path class="st1" d="M299.47,108.81h-6.64c-.1,0-.18-.18-.17-.31.06-.68.29-1.34.25-2.03l5.05.03c.17.05,1.19,1.49,1.36,1.77.11.19.21.29.15.55h0Z"/>
        <path class="st1" d="M289.63,64.31c.63,2.55-.63,5.75-3.28,6.56l2.18-4.14c-.18-.17-.18-.33-.39-.08-.33.4-.91,1.55-1.2,2.08s-.58,1.1-.75,1.67c-.21.02-.28-.57-.3-.72-.24-2.47,1.45-4.62,3.73-5.37h0Z"/>
        <path class="st1" d="M289.01,95.69l-.64,5.92-2.17.17c-.07-2.09.26-4.17.47-6.25.76.25,1.56.14,2.34.16Z"/>
        <path class="st1" d="M281.04,63.68l-2.02.15c-.27-2.06-.98-3.87-2.18-5.56l1.31-1.46c1.71,1.9,2.51,4.37,2.89,6.87Z"/>
        <path class="st1" d="M248.87,108.81c-.24-.22,1.39-1.89,1.43-2.32l4.97-.03.31,2.34h-6.71Z"/>
        <path class="st1" d="M291.5,68.99c.2,2.72-1.22,5.3-3.9,6.09-.05-.26.13-.41.25-.61.62-1.1,1.5-2.2,2.25-3.22-.25-.39-.42-.08-.62.16-.74.87-1.44,2.21-2.03,3.2-.26.04-.15-.21-.15-.39-.04-1.18.05-1.76.65-2.78.73-1.23,2.13-2.29,3.56-2.45h0Z"/>
        <path class="st1" d="M269.02,68.99v2.42c0,.46-.47,1.96-.66,2.46-.28.73-.66,1.4-1.05,2.07-.12.1-.36-.09-.46-.17-.17-.12-1.07-.86-1.09-.95.97-1.76,1.31-3.53,1.3-5.53l1.96-.3Z"/>
        <path class="st1" d="M268.71,67.9l-2.02.31c-.17-1.06-.9-2.34-1.64-3.12-.25-.27-.93-.65-1-.88-.09-.3.2-1.3.29-1.69.04-.18.06-.28.23-.39,2.03,1.31,3.67,3.37,4.14,5.78h0Z"/>
        <path class="st1" d="M271.38,55.23l-.02-2.01c2.24.21,4.5,1.29,6.09,2.89l-1.48,1.3c-1.39-1.06-2.87-1.81-4.59-2.17h0Z"/>
        <path class="st1" d="M288.54,79.76c-2.21-.23-4.37-1.48-5.93-3.04l1.62-1.32c1.02,1.09,2.34,1.68,3.69,2.25,0,0,.62,2.11.62,2.11Z"/>
        <path class="st1" d="M222.8,68.13c-.24,1.71-1.57,3.85-2.97,4.83-.43.3-1.46.87-1.95,1.02-.21.07-.28-.02-.23-.23.93-1.67,2.15-3.23,3.09-4.87.1-.18.28-.42-.05-.51-.25-.07-.37.29-.48.45-1,1.37-1.81,3.05-2.8,4.39-.05.07-.19.21-.23.16-.82-3.88,2.15-6.99,5.62-8.12-.09.9.12,2.01,0,2.89h0Z"/>
        <path class="st1" d="M218.86,56c-.81.81-1.99-.56-1.15-1.23.9-.71,1.78.59,1.15,1.23Z"/>
      </g>
    </g>
  </g>
</svg>